PathFileType	4	(X/Y/Z)	C:\Users\Basilio\Documents\Thesis Gigler\squatting_fais\c3dfiles\073\SJ_pre5\markers_experimental.trc
DataRate	CameraRate	NumFrames	NumMarkers	Units	OrigDataRate	OrigDataStartFrame	OrigNumFrames
200.000000	200.000000	4	61	mm	200.000000	510	1360
Frame#	Time	FHD			LBHD			RBHD			C7			T10			CLAV			LSHO			LUUPA			LMUPA			LDUPA			LLEP			LMEP			LRAD			LUL			LRFIN			RSHO			RUPA1			RMUPA			RDUPA			RLEP			RMEP			RRAD			RUL			RUFIN			LASI			RASI			USACR			LSACR			RSACR			LTHI1			LTHI2			LTHI3			LTHI4			LLFC			LMFC			LTIB1			LTIB2			LTIB3			LTIB4			LLMAL			LMMAL			LHEE			LMT1			LMT2			LMT5			RTHI			RTHI2			RTHI3			RTHI4			RLFC			RMFC			RTIB1			RTIB2			RTIB3			RTIB4			RLMAL			RMMAL			RHEE			RMT1			RMT2			RMT5			
		X1	Y1	Z1	X2	Y2	Z2	X3	Y3	Z3	X4	Y4	Z4	X5	Y5	Z5	X6	Y6	Z6	X7	Y7	Z7	X8	Y8	Z8	X9	Y9	Z9	X10	Y10	Z10	X11	Y11	Z11	X12	Y12	Z12	X13	Y13	Z13	X14	Y14	Z14	X15	Y15	Z15	X16	Y16	Z16	X17	Y17	Z17	X18	Y18	Z18	X19	Y19	Z19	X20	Y20	Z20	X21	Y21	Z21	X22	Y22	Z22	X23	Y23	Z23	X24	Y24	Z24	X25	Y25	Z25	X26	Y26	Z26	X27	Y27	Z27	X28	Y28	Z28	X29	Y29	Z29	X30	Y30	Z30	X31	Y31	Z31	X32	Y32	Z32	X33	Y33	Z33	X34	Y34	Z34	X35	Y35	Z35	X36	Y36	Z36	X37	Y37	Z37	X38	Y38	Z38	X39	Y39	Z39	X40	Y40	Z40	X41	Y41	Z41	X42	Y42	Z42	X43	Y43	Z43	X44	Y44	Z44	X45	Y45	Z45	X46	Y46	Z46	X47	Y47	Z47	X48	Y48	Z48	X49	Y49	Z49	X50	Y50	Z50	X51	Y51	Z51	X52	Y52	Z52	X53	Y53	Z53	X54	Y54	Z54	X55	Y55	Z55	X56	Y56	Z56	X57	Y57	Z57	X58	Y58	Z58	X59	Y59	Z59	X60	Y60	Z60	X61	Y61	Z61	

511	2.55	93.9680633544922	997.1389160156252	-982.952575683594	-43.60564041137696	987.1387939453127	-1004.12255859375	-67.90892791748048	979.3906860351565	-870.854675292969	-99.41802978515628	938.5234375000002	-935.143005371094	-401.5919799804689	812.3032836914065	-933.1170654296877	-74.6364212036133	783.4255371093752	-933.2627563476565	-64.47213745117189	809.9294433593752	-1098.031494140625	-143.028060913086	807.2017822265627	-1229.700561523438	-173.0974731445313	766.9522705078126	-1235.42578125	-184.5173950195313	799.531188964844	-1285.478149414063	-271.7376098632813	776.1140747070315	-1350.066650390625	-317.0899047851563	848.5020141601565	-1342.240966796875	-463.1187744140626	697.6634521484376	-1172.6328125	-439.482635498047	634.3005371093751	-1204.259765625	-445.1282653808595	683.0858154296876	-1109.214721679688	-66.38543701171876	803.933532714844	-769.4070434570315	-158.1912078857422	829.841491699219	-624.9608764648439	-189.6395568847657	793.2620849609377	-613.5550537109376	-206.5853118896485	836.330749511719	-574.6766967773439	-286.0055236816407	816.9346313476565	-521.9366455078126	-337.3299865722657	884.5349731445315	-565.6352539062501	-482.7827148437501	713.4528198242189	-680.9779052734376	-456.6440429687501	651.5980224609376	-645.1653442382814	-445.4335937500001	689.9721069335939	-740.3254394531251	-426.4032287597657	618.0051879882814	-1057.55908203125	-420.7155761718751	596.0122070312501	-816.5465087890627	-521.8157958984376	757.9884033203126	-921.5872802734377	-551.8470458984376	746.1560058593751	-948.672058105469	-552.7693481445314	744.5256958007814	-893.0889892578127	-348.0851745605469	526.4491577148439	-1184.141357421875	-262.3202514648438	528.8556518554689	-1195.751586914063	-240.5062103271485	563.2439575195314	-1167.136962890625	-226.9968719482422	478.2981872558595	-1198.502807617188	-189.0435485839844	443.213348388672	-1206.568969726563	-163.0990295410157	427.6692504882814	-1082.555419921875	-202.128646850586	255.0927886962891	-1166.197998046875	-279.0701599121094	253.2326354980469	-1212.804077148438	-248.0154113769532	227.9788055419922	-1193.84326171875	-284.7103271484376	160.4287414550782	-1158.30615234375	-397.9508666992189	86.32511138916017	-1181.803344726563	-375.0180664062501	104.0249633789063	-1095.606079101563	-460.6177673339845	54.0964813232422	-1137.134643554688	-231.5406341552735	53.94884872436525	-1130.617553710938	-235.8813781738282	54.0886573791504	-1168.533935546875	-276.3033447265626	35.77873611450196	-1220.232666015625	-418.2720947265626	536.4976196289064	-689.9104614257814	-352.9612121582032	540.6951293945314	-681.0925903320314	-336.1488952636719	568.4025878906251	-690.4876708984376	-298.1554870605469	479.2104797363282	-671.7855224609376	-176.0817565917969	416.9170227050782	-664.5306396484376	-153.712158203125	396.5357360839845	-783.130798339844	-198.1483917236329	259.6777648925782	-740.9501342773439	-267.6943054199219	211.0807189941407	-672.7423095703126	-248.5525817871094	195.2657928466797	-713.6722412109376	-287.1700439453126	165.9133911132813	-744.8507080078126	-399.6807250976564	84.56250000000001	-686.7457885742189	-380.6228332519532	96.12467193603518	-775.4695434570315	-472.8832092285157	47.12269973754884	-742.7272949218751	-243.7395172119141	54.7719192504883	-713.4104614257814	-251.1206359863282	55.74124145507814	-673.6253051757814	-298.8170166015626	35.4607162475586	-630.8371582031251	
512	2.555	93.9529266357422	997.1361083984377	-982.9956665039065	-43.63902664184571	987.1143798828127	-1004.144897460938	-67.91182708740236	979.453063964844	-870.9674072265627	-99.39235687255862	938.5208740234377	-935.1538085937502	-401.5662231445314	812.3296508789065	-933.118835449219	-74.65501403808595	783.4017333984377	-933.3750610351565	-64.5076141357422	809.948181152344	-1098.086547851563	-143.0675506591797	807.3171997070315	-1229.771240234375	-173.1833953857422	767.0045776367189	-1235.493041992188	-184.6462554931641	799.573181152344	-1285.520751953125	-271.8019714355469	776.2099609375002	-1350.090454101563	-317.1642761230469	848.6401977539065	-1342.261596679688	-463.2178649902345	697.6182861328126	-1172.625366210938	-439.602996826172	634.3885498046876	-1204.22119140625	-445.2065429687501	683.2185668945314	-1109.22314453125	-66.36846923828126	803.8662719726565	-769.522644042969	-158.109359741211	829.7830200195315	-624.9668579101564	-189.5853729248047	793.199890136719	-613.6374511718751	-206.4732513427735	836.265563964844	-574.7073364257814	-285.9007263183594	816.900573730469	-522.0062866210939	-337.2200012207032	884.5461425781252	-565.6257934570314	-482.7166748046876	713.5304565429689	-680.9373779296876	-456.6175537109376	651.6323242187501	-645.1589965820314	-445.4254760742189	689.9780273437501	-740.2973022460939	-426.5628051757814	617.9858398437501	-1057.637451171875	-420.8367614746095	595.9048461914064	-816.6274414062502	-521.7937011718751	758.0336303710939	-921.6011962890627	-551.8268432617189	746.2492065429689	-948.6541748046877	-552.7517089843751	744.5927734375001	-893.0916137695315	-348.1011352539063	526.4680175781251	-1184.104614257813	-262.2534790039063	528.9025878906251	-1195.665283203125	-240.5756988525391	563.2781372070314	-1167.092041015625	-227.0734558105469	478.3246459960939	-1198.477783203125	-189.1342010498047	443.2633666992189	-1206.522827148438	-163.1742553710938	427.6980895996095	-1082.518676757813	-202.151107788086	255.1112823486329	-1166.196044921875	-279.1202087402344	253.2658081054688	-1212.798583984375	-248.0467834472657	227.9648590087891	-1193.881958007813	-284.6977233886719	160.4419250488282	-1158.317749023438	-397.9320678710939	86.31855773925783	-1181.7900390625	-375.0302734375001	103.9901657104492	-1095.591064453125	-460.6281738281251	54.10825729370119	-1137.119995117188	-231.5790557861329	53.91624832153322	-1130.650390625	-235.9220733642579	54.07225799560548	-1168.5458984375	-276.3392333984376	35.78789138793946	-1220.214233398438	-418.269989013672	536.5515136718751	-689.9343872070314	-352.9552612304688	540.7249755859376	-681.1258544921876	-336.0959472656251	568.4501953125001	-690.4960327148439	-298.1429748535157	479.2570190429689	-671.7475585937501	-176.0829315185547	416.9385070800782	-664.5615234375001	-153.7748413085938	396.5046691894532	-783.2100219726565	-198.1050720214844	259.7417297363282	-741.0608520507814	-267.7157897949219	211.0936889648438	-672.7454833984376	-248.5311431884766	195.2982025146485	-713.7258300781251	-287.0820312500001	165.9175720214844	-744.8757324218751	-399.691864013672	84.55655670166017	-686.7526855468751	-380.6687011718751	96.16631317138675	-775.482604980469	-472.8989257812501	47.09130859375001	-742.6953735351564	-243.7464141845704	54.78035736083986	-713.4146118164064	-251.1325225830079	55.70310592651369	-673.5867919921876	-298.8174743652344	35.45994567871094	-630.8408813476564	
513	2.56	93.94210815429689	997.1260986328127	-983.0006103515627	-43.64675903320313	987.137878417969	-1004.115234375	-67.89385223388673	979.3911743164065	-870.9229736328127	-99.36848449707034	938.5150146484377	-935.1621093750002	-401.5627441406251	812.4095458984377	-933.1363525390627	-74.66534423828126	783.4101562500002	-933.3775024414065	-64.47366333007814	810.0064086914065	-1098.174194335938	-143.0756988525391	807.4304199218752	-1229.8017578125	-173.2324676513672	767.0922851562501	-1235.587646484375	-184.6009521484375	799.7326660156252	-1285.630859375	-271.9301757812501	776.3303222656252	-1350.070556640625	-317.2016906738282	848.7273559570315	-1342.251831054688	-463.234344482422	697.7136230468751	-1172.63037109375	-439.601776123047	634.4745483398439	-1204.245971679688	-445.2664489746095	683.2285156250001	-1109.26708984375	-66.27858734130861	803.814880371094	-769.5769653320315	-158.027084350586	829.6846313476565	-624.9981079101564	-189.5078277587891	793.1217041015627	-613.6227416992189	-206.3533630371094	836.218444824219	-574.7423095703126	-285.8246154785157	816.881286621094	-521.9660034179689	-337.0718078613282	884.5427246093752	-565.6397094726564	-482.718963623047	713.5549316406251	-680.9452514648439	-456.6144409179689	651.6477661132814	-645.1284179687501	-445.3993225097657	690.0017089843751	-740.3040161132814	-426.6703186035157	617.9191894531251	-1057.569213867188	-421.0253906250001	595.8510131835939	-816.549743652344	-521.8150634765626	758.0737304687501	-921.557556152344	-551.8171386718751	746.3334350585939	-948.6728515625002	-552.7568359375001	744.6777343750001	-893.0137939453127	-348.2038269042969	526.4673461914064	-1184.127197265625	-262.3912963867188	528.9265136718751	-1195.67333984375	-240.6341552734376	563.2733154296876	-1167.114868164063	-227.1326141357422	478.3691406250001	-1198.402099609375	-189.1414642333985	443.2765197753907	-1206.537353515625	-163.2357482910157	427.7111816406251	-1082.495361328125	-202.212875366211	255.1467590332032	-1166.205932617188	-279.1192932128907	253.2484436035157	-1212.815307617188	-248.0506591796876	227.9834442138672	-1193.854736328125	-284.7044067382813	160.4491424560547	-1158.2900390625	-397.9492187500001	86.26662445068361	-1181.78857421875	-375.0223083496094	104.0251541137696	-1095.607177734375	-460.6185913085939	54.07969284057619	-1137.143920898438	-231.5206909179688	53.93746185302736	-1130.61962890625	-235.8733215332032	54.12083435058595	-1168.539672851563	-276.3663330078126	35.74358367919923	-1220.227172851563	-418.215545654297	536.5914306640626	-689.9506225585939	-352.9338989257813	540.7395019531251	-681.1334838867189	-336.0939941406251	568.4995727539064	-690.5059814453126	-298.1510009765626	479.2919006347657	-671.7894897460939	-176.0931701660157	416.9482421875001	-664.6115722656251	-153.8294525146485	396.5245971679689	-783.225036621094	-198.1117553710938	259.7584533691407	-741.0813598632814	-267.6888427734376	211.0827331542969	-672.7809448242189	-248.5723724365235	195.2727813720704	-713.7887573242189	-287.0636901855469	165.9232788085938	-744.8973388671876	-399.6797485351564	84.55187988281251	-686.7863159179689	-380.6023559570313	96.1049728393555	-775.4840087890627	-472.8964233398439	47.10819625854493	-742.7167968750001	-243.7398376464844	54.74877166748048	-713.4069213867189	-251.139144897461	55.737361907959	-673.6010742187501	-298.7918701171876	35.46698379516602	-630.8228149414064	
514	2.565	94.05873870849611	997.2030029296877	-983.1023559570315	-43.60483551025391	987.1560058593752	-1004.183410644531	-67.92144775390626	979.393981933594	-871.0366210937502	-99.33362579345706	938.5068359375002	-935.219909667969	-401.5507202148439	812.447937011719	-933.1130371093752	-74.60577392578126	783.4298095703127	-933.468200683594	-64.47833251953126	810.0042724609377	-1098.224853515625	-143.0941925048828	807.5314941406252	-1229.896606445313	-173.3120422363282	767.1770629882814	-1235.631225585938	-184.6098937988282	799.5733642578127	-1285.567749023438	-272.1947937011719	776.5903930664065	-1349.881103515625	-317.3107299804688	848.8791503906252	-1342.186157226563	-463.3362121582032	697.7973632812501	-1172.610961914063	-439.6961975097657	634.6190795898439	-1204.28564453125	-445.1957092285157	683.2944946289064	-1109.237670898438	-66.26504516601564	803.768249511719	-769.649841308594	-157.942123413086	829.6281738281252	-625.0343017578126	-189.3878936767578	793.0473632812502	-613.6904296875001	-206.2613830566407	836.147155761719	-574.7811279296876	-285.6974487304688	816.8091430664065	-521.9616699218751	-336.9776306152344	884.540710449219	-565.6102294921876	-482.675262451172	713.5904541015626	-680.8574829101564	-456.558807373047	651.7114257812501	-645.1216430664064	-445.366668701172	690.0490112304689	-740.2720947265626	-426.7245178222657	617.9304199218751	-1057.563110351563	-420.7790527343751	596.0787353515626	-816.5246582031252	-521.8246459960939	758.1387329101564	-921.5589599609377	-551.8284912109376	746.3596191406251	-948.579284667969	-552.7031860351564	744.7512207031251	-893.0144653320315	-348.1419677734376	526.4948730468751	-1184.025024414063	-262.4326171875001	528.9537963867189	-1195.649536132813	-240.6553192138672	563.3508911132814	-1167.04443359375	-227.1151885986329	478.387176513672	-1198.422485351563	-189.2510528564453	443.3233642578126	-1206.443969726563	-163.2457885742188	427.7447814941407	-1082.501586914063	-202.2135009765626	255.1711730957032	-1166.185302734375	-279.1402282714844	253.2719116210938	-1212.767700195313	-248.1015014648438	227.9797668457032	-1193.884643554688	-284.7572937011719	160.439453125	-1158.308959960938	-398.011199951172	86.29117584228517	-1181.830322265625	-375.1065979003907	104.0388412475586	-1095.637939453125	-460.618377685547	54.07705307006837	-1137.16845703125	-231.5760192871094	53.90531158447267	-1130.644775390625	-235.8783721923829	54.15043258666994	-1168.576049804688	-276.3193664550782	35.72702789306641	-1220.23974609375	-418.2176513671876	536.6417846679689	-689.9398193359376	-352.9016723632813	540.8053588867189	-681.1843872070314	-336.0944213867188	568.5225830078126	-690.5053100585939	-298.1547546386719	479.3082275390626	-671.8224487304689	-176.124740600586	416.9558410644532	-664.6712646484376	-153.9134368896485	396.4846801757814	-783.3003540039065	-198.1466217041016	259.7476501464844	-741.0927734375001	-267.7226867675782	211.0972137451172	-672.8276367187501	-248.5733032226563	195.293441772461	-713.8148193359376	-287.0754394531251	165.9517974853516	-744.9077758789064	-399.6982727050782	84.5795135498047	-686.7317504882814	-380.6707763671876	96.11966705322268	-775.4776611328127	-472.9061279296876	47.10990142822266	-742.6934204101564	-243.750717163086	54.76578903198244	-713.4465942382814	-251.1079559326172	55.77841186523439	-673.6645507812501	-298.8114929199219	35.47483825683594	-630.8408813476564	
